<?xml version="1.0" standalone="no"?><!DOCTYPE svg PUBLIC "-//W3C//DTD SVG 1.1//EN" "http://www.w3.org/Graphics/SVG/1.1/DTD/svg11.dtd"><svg t="1718544091801" class="icon" viewBox="0 0 1024 1024" version="1.1" xmlns="http://www.w3.org/2000/svg" p-id="10879" xmlns:xlink="http://www.w3.org/1999/xlink" width="200" height="200"><path d="M992.61748 963.559591H30.220204c-16.272418 0-30.220204 13.947787-30.220204 30.220205 0 16.272418 13.947787 30.220204 30.220204 30.220204h962.397276c16.272418 0 30.220204-13.947787 30.220204-30.220204 0-16.272418-13.947787-30.220204-30.220204-30.220205zM97.634506 863.600454c4.649262 0 6.973893 0 11.623156-2.324631l232.46311-88.335982c6.973893-2.324631 16.272418-6.973893 20.92168-13.947787L908.93076 210.379115c23.246311-23.246311 23.246311-62.76504 0-86.011351L801.99773 17.434733c-23.246311-23.246311-60.440409-23.246311-86.011351 0L172.022701 566.047673c-6.973893 6.973893-11.623156 13.947787-13.947786 20.92168L69.738933 824.081725c-4.649262 13.947787 2.324631 32.544835 18.597049 37.194098 2.324631 2.324631 6.973893 2.324631 9.298524 2.324631zM653.221339 168.535755l106.933031 106.93303-385.888763 385.888763-106.93303-106.93303L653.221339 168.535755z m106.933031-106.933031l106.933031 106.933031-62.76504 65.089671L697.38933 126.692395l62.76504-65.089671zM213.866061 610.215664l13.947787-13.947787 106.933031 106.933031-13.947787 13.947787-169.69807 65.08967 62.765039-172.022701z" fill="#018BE6" p-id="10880"></path></svg>